<?xml version="1.0" encoding="utf-8"?>
<!-- Generator: Adobe Illustrator 19.0.0, SVG Export Plug-In . SVG Version: 6.00 Build 0)  -->
<svg version="1.1" id="Layer_1" xmlns="http://www.w3.org/2000/svg" xmlns:xlink="http://www.w3.org/1999/xlink" x="0px" y="0px"
	 height="80px" width="80px" viewBox="0 0 500 500" style="enable-background:new 0 0 500 500;" xml:space="preserve">
<style type="text/css">
	.st0{fill:#FF5F00;}
	.st1{fill:#EB001B;}
	.st2{fill:#F79E1B;}
</style>
<g id="XMLID_1_">
	<path id="XMLID_2_" d="M133.9,391v-18.8c0-7.2-4.4-11.9-11.9-11.9c-3.8,0-7.8,1.3-10.7,5.3c-2.2-3.4-5.3-5.3-10-5.3
		c-3.1,0-6.3,0.9-8.8,4.4v-3.8H86V391h6.6v-16.6c0-5.3,2.8-7.8,7.2-7.8s6.6,2.8,6.6,7.8V391h6.6v-16.6c0-5.3,3.1-7.8,7.2-7.8
		c4.4,0,6.6,2.8,6.6,7.8V391H133.9z M231.4,360.9h-10.7v-9.1h-6.6v9.1h-6v6h6v13.8c0,6.9,2.8,11,10.3,11c2.8,0,6-0.9,8.1-2.2
		l-1.9-5.6c-1.9,1.3-4.1,1.6-5.6,1.6c-3.1,0-4.4-1.9-4.4-5v-13.5h10.7V360.9z M287.1,360.3c-3.8,0-6.3,1.9-7.8,4.4v-3.8h-6.6V391
		h6.6v-16.9c0-5,2.2-7.8,6.3-7.8c1.3,0,2.8,0.3,4.1,0.6l1.9-6.3C290.3,360.3,288.4,360.3,287.1,360.3z M202.8,363.4
		c-3.1-2.2-7.5-3.1-12.2-3.1c-7.5,0-12.5,3.8-12.5,9.7c0,5,3.8,7.8,10.3,8.8l3.1,0.3c3.4,0.6,5.3,1.6,5.3,3.1c0,2.2-2.5,3.8-6.9,3.8
		c-4.4,0-7.8-1.6-10-3.1l-3.1,5c3.4,2.5,8.1,3.8,12.8,3.8c8.8,0,13.8-4.1,13.8-9.7c0-5.3-4.1-8.1-10.3-9.1l-3.1-0.3
		c-2.8-0.3-5-0.9-5-2.8c0-2.2,2.2-3.4,5.6-3.4c3.8,0,7.5,1.6,9.4,2.5L202.8,363.4z M377.7,360.3c-3.8,0-6.3,1.9-7.8,4.4v-3.8h-6.6
		V391h6.6v-16.9c0-5,2.2-7.8,6.3-7.8c1.3,0,2.8,0.3,4.1,0.6l1.9-6.3C380.8,360.3,378.9,360.3,377.7,360.3z M293.7,375.9
		c0,9.1,6.3,15.7,16,15.7c4.4,0,7.5-0.9,10.7-3.4l-3.1-5.3c-2.5,1.9-5,2.8-7.8,2.8c-5.3,0-9.1-3.8-9.1-9.7c0-5.6,3.8-9.4,9.1-9.7
		c2.8,0,5.3,0.9,7.8,2.8l3.1-5.3c-3.1-2.5-6.3-3.4-10.7-3.4C300,360.3,293.7,366.9,293.7,375.9z M354.5,375.9v-15h-6.6v3.8
		c-2.2-2.8-5.3-4.4-9.4-4.4c-8.5,0-15,6.6-15,15.7c0,9.1,6.6,15.7,15,15.7c4.4,0,7.5-1.6,9.4-4.4v3.8h6.6V375.9z M330.4,375.9
		c0-5.3,3.4-9.7,9.1-9.7c5.3,0,9.1,4.1,9.1,9.7c0,5.3-3.8,9.7-9.1,9.7C333.8,385.3,330.4,381.3,330.4,375.9z M251.7,360.3
		c-8.8,0-15,6.3-15,15.7c0,9.4,6.3,15.7,15.4,15.7c4.4,0,8.8-1.3,12.2-4.1l-3.1-4.7c-2.5,1.9-5.6,3.1-8.8,3.1
		c-4.1,0-8.1-1.9-9.1-7.2h22.2v-2.5C265.8,366.5,260.2,360.3,251.7,360.3z M251.7,365.9c4.1,0,6.9,2.5,7.5,7.2h-15.7
		C244.2,369.1,247,365.9,251.7,365.9z M415,375.9V349h-6.6v15.7c-2.2-2.8-5.3-4.4-9.4-4.4c-8.5,0-15,6.6-15,15.7
		c0,9.1,6.6,15.7,15,15.7c4.4,0,7.5-1.6,9.4-4.4v3.8h6.6V375.9z M390.8,375.9c0-5.3,3.4-9.7,9.1-9.7c5.3,0,9.1,4.1,9.1,9.7
		c0,5.3-3.8,9.7-9.1,9.7C394.3,385.3,390.8,381.3,390.8,375.9z M170.9,375.9v-15h-6.6v3.8c-2.2-2.8-5.3-4.4-9.4-4.4
		c-8.5,0-15,6.6-15,15.7c0,9.1,6.6,15.7,15,15.7c4.4,0,7.5-1.6,9.4-4.4v3.8h6.6V375.9z M146.5,375.9c0-5.3,3.4-9.7,9.1-9.7
		c5.3,0,9.1,4.1,9.1,9.7c0,5.3-3.8,9.7-9.1,9.7C149.9,385.3,146.5,381.3,146.5,375.9z"/>
	<rect id="XMLID_17_" x="200.7" y="132.5" class="st0" width="98.7" height="177.3"/>
	<path id="XMLID_18_" class="st1" d="M206.9,221.2c0-36,16.9-68,42.9-88.7c-19.1-15-43.2-24.1-69.6-24.1
		c-62.3,0-112.8,50.4-112.8,112.8c0,62.3,50.4,112.8,112.8,112.8c26.3,0,50.4-9.1,69.6-24.1C223.8,289.5,206.9,257.2,206.9,221.2z"
		/>
	<path id="XMLID_19_" class="st2" d="M432.5,221.2c0,62.3-50.4,112.8-112.8,112.8c-26.3,0-50.4-9.1-69.6-24.1
		c26.3-20.7,42.9-52.6,42.9-88.7c0-36-16.9-68-42.9-88.7c19.1-15,43.2-24.1,69.6-24.1C382.1,108.4,432.5,159.1,432.5,221.2z"/>
</g>
</svg>
